<?xml version="1.0" encoding="utf-8"?>
<?xml-stylesheet type="text/xsl" href="rss1.xsl"?>
<rss version="2.0" xmlns:atom="http://www.w3.org/2005/Atom" xmlns:content="http://purl.org/rss/1.0/modules/content/" xmlns:dc="http://purl.org/dc/elements/1.1/" xmlns:media="http://search.yahoo.com/mrss/">
<channel>
 <title>Getty</title>
 <link>http://www.gettyimg.com/</link>
 <atom:link href="http://www.gettyimg.com/" rel="self" type="application/rss+xml" />

 
                <item>
                <title><![CDATA[【Requests】[REQ AUD] - 2 Magnetic Fields albums in FLAC]]></title>
                <link><![CDATA[https://sharemania.us/threads/2-magnetic-fields-albums-in-flac.223279/]]></link>
                <description><![CDATA[<article>
<blockquote class="messageText SelectQuoteContainer ugc baseHtml">
Anyone have <i>69 Love songs</i> or <i>i</i> in FLAC? Thanks if you do.
<div class="messageTextEndMarker">&nbsp;</div>
</blockquote>
</article>]]></description>
                <author><![CDATA[obfuscator]]></author>
                </item>

                
                <item>
                <title><![CDATA[【UPSCALED】Alan Walker - All Falls Down (feat. Noah Cyrus with Digital Farm Animals) [4K AI Upscale HEVC 10-bit | PCM 24-bit]]]></title>
                <link><![CDATA[https://sharemania.us/threads/alan-walker-all-falls-down-feat-noah-cyrus-with-digital-farm-animals-4k-ai-upscale-hevc-10-bit-pcm-24-bit.223280/]]></link>
                <description><![CDATA[<article>
<blockquote class="messageText SelectQuoteContainer ugc baseHtml">
<b><b><img src="https://images2.imgbox.com/30/d2/ycDXE9fN_o.jpg" class="bbCodeImage LbImage" alt="[​IMG]" data-url="https://images2.imgbox.com/30/d2/ycDXE9fN_o.jpg" style=""> <br>
<br>
Genre:</b> <span style="color: #0059b3">Electronic, Pop</span> <br>
<b>Style:</b> <span style="color: #0059b3">Downtempo, Electro House, Dance-pop</span> <br>
<b>Year:</b> <span style="color: #0059b3">2017 </span><br>
Video Source: <span style="color: #0059b3">Vimeo, WebMaster</span><br>
Audio Source: <span style="color: #0059b3">Qobuz Hi-Res 24-bit</span></b><br>
<br>
"<b>All Falls Down</b>" is a song by British-Norwegian record producer and DJ Alan Walker featuring American singer Noah Cyrus and fellow British DJ and record producer Digital Farm Animals, with uncredited vocals by Swedish singer Juliander. It was composed by Digital Farm Animals, Pablo Bowman, Sarah Blanchard and its producers Walker, Mood Melodies, Digital Farm Animals and The Six, with lyrics written by The Six, Bowman, Blanchard and Daniel Boyle. The song was released on 27 October 2017 via Mer Musikk and Ultra Music.<br>
<br>
The music video, directed by Kristian Berg, joins a post-apocalyptic trilogy which began with the visual for Walker's previous single <a href="https://sharemania.us/threads/alan-walker-feat-gavin-james-tired-master-prores-1080p-pcm-24-bit-48-khz.222090/" class="internalLink">"Tired"</a>. It continues where the previous video left off, taking place eighty-three years after a solar storm destroyed all technology on earth in 2017. It has reached 267.3M total views and 2.6M likes on YouTube (June 2023).<br>
<br>
<b>Release Info</b><br>
The video track is upscaled to 4K with Topaz Video AI and encoded to HEVC 10-bit.<br>
The PCM track is lossless (Qobuz, HiRes 24-bit), synced with Adobe Audition.<br>
The timed lyrics are synced and edited to match the music video.<br>
Enable the subtitles to see the lyrics.<br>
<br>
<div class="ToggleTriggerAnchor bbCodeSpoilerContainer">
<button type="button" class="button bbCodeSpoilerButton ToggleTrigger Tooltip JsOnly" data-target="> .SpoilerTarget"><span>Spoiler: <span class="SpoilerTitle">Media Info</span></span></button>
<div class="SpoilerTarget bbCodeSpoilerText">
<div class="bbCodeBlock bbCodeCode">
<div class="type">Code:</div>
<pre>General
Unique ID                      : 221593579093073286742075413870691667119 (0xA6B55EF64FFA25E9E906EDF5E14ECCAF)
Complete name                  : Alan Walker - All Falls Down (feat. Noah Cyrus with Digital Farm Animals).mkv
Format                         : Matroska
Format version                 : Version 4 / Version 2
File size                      : 504 MiB
Duration                       : 3 min 25 s
Overall bit rate               : 20.6 Mb/s
Frame rate                     : 25.000 FPS
Encoded date                   : 2023-06-23 15:18:14 UTC
Writing application            : mkvmerge v76.0 ('Celebration') 64-bit
Writing library                : libebml v1.4.4 + libmatroska v1.7.1

Video
ID                             : 1
Format                         : HEVC
Format/Info                    : High Efficiency Video Coding
Format profile                 : Main 10@L5@Main
Codec ID                       : V_MPEGH/ISO/HEVC
Duration                       : 3 min 25 s
Bit rate                       : 18.2 Mb/s
Width                          : 3 840 pixels
Height                         : 2 160 pixels
Display aspect ratio           : 16:9
Frame rate mode                : Constant
Frame rate                     : 25.000 FPS
Color space                    : YUV
Chroma subsampling             : 4:2:0
Bit depth                      : 10 bits
Bits/(Pixel*Frame)             : 0.088
Stream size                    : 446 MiB (88%)
Language                       : English
Default                        : Yes
Forced                         : No
Color range                    : Limited
Color primaries                : BT.709
Transfer characteristics       : BT.709
Matrix coefficients            : BT.709

Audio #1
ID                             : 2
Format                         : PCM
Format settings                : Little / Signed
Codec ID                       : A_PCM/INT/LIT
Duration                       : 3 min 25 s
Bit rate mode                  : Constant
Bit rate                       : 2 117 kb/s
Channel(s)                     : 2 channels
Sampling rate                  : 44.1 kHz
Frame rate                     : 25.000 FPS (1764 SPF)
Bit depth                      : 24 bits
Stream size                    : 51.8 MiB (10%)
Title                          : 24-bit
Language                       : English
Default                        : Yes
Forced                         : No

Audio #2
ID                             : 3
Format                         : AAC LC
Format/Info                    : Advanced Audio Codec Low Complexity
Codec ID                       : A_AAC-2
Duration                       : 3 min 25 s
Bit rate                       : 256 kb/s
Channel(s)                     : 2 channels
Channel layout                 : L R
Sampling rate                  : 48.0 kHz
Frame rate                     : 46.875 FPS (1024 SPF)
Compression mode               : Lossy
Stream size                    : 6.26 MiB (1%)
Language                       : English
Default                        : No
Forced                         : No

Text
ID                             : 4
Format                         : UTF-8
Codec ID                       : S_TEXT/UTF8
Codec ID/Info                  : UTF-8 Plain Text
Duration                       : 3 min 15 s
Bit rate                       : 67 b/s
Frame rate                     : 0.318 FPS
Count of elements              : 62
Stream size                    : 1.60 KiB (0%)
Title                          : Lyrics
Language                       : English
Default                        : No
Forced                         : No
</pre>
</div></div>
</div><br>
<div class="bbCodeBlock bbCodeVfcHH HiddenContent">
<div class="attribution type">Hidden Content:</div>
<blockquote>You must reply before you can see the hidden data contained here.</blockquote>
</div>
<div class="messageTextEndMarker">&nbsp;</div>
</blockquote>
</article>]]></description>
                <author><![CDATA[ADHDerby]]></author>
                </item>

                </channel></rss>